<svg xmlns="http://www.w3.org/2000/svg" width="1745" height="702" viewBox="0 0 1745 702" fill="none"><g id="Logo Estacao pin Vila Sonia"><path id="Vector" d="M421.551 150.927C421.286 157.208 420.327 163.385 418.921 169.5C416.744 178.958 413.416 188.031 409.525 196.901C406.14 204.583 402.348 212.068 398.229 219.385C392.218 230.109 386.161 240.792 380.025 251.432C374.156 261.609 368.182 271.698 362.229 281.833C357.374 290.068 352.505 298.266 347.65 306.5C346.63 308.234 345.63 309.963 344.614 311.698C344.447 311.963 344.265 312.187 343.942 312.635C343.104 311.271 342.411 310.151 341.739 309.005C335.765 298.896 329.791 288.802 323.817 278.693C319.557 271.453 315.296 264.239 311.057 256.979C306.755 249.62 302.494 242.26 298.213 234.901C293.645 227.073 289.202 219.182 284.999 211.13C281.067 203.568 277.437 195.88 274.4 187.906C271.301 179.755 268.874 171.417 267.364 162.833C266.265 156.51 265.921 150.13 266.244 143.75C266.593 137.042 267.713 130.458 269.671 124.036C272.301 115.411 276.338 107.484 281.718 100.224C286.692 93.5155 292.604 87.7864 299.473 83.0364C306.593 78.1249 314.317 74.4947 322.656 72.2134C330.463 70.0728 338.395 69.0728 346.468 69.3801C359.921 69.8905 372.484 73.4374 384.041 80.4062C390.343 84.1978 395.926 88.8489 400.9 94.2707C404.874 98.5937 408.343 103.281 411.218 108.38C415.275 115.578 418.187 123.219 419.843 131.333C421.166 137.818 421.796 144.323 421.51 150.927M493.541 1.67178H1.00977V512.838H200.312V388.088H493.541C598.9 389.615 688.275 300.239 686.744 194.88C688.275 89.1562 598.9 0.531152 493.541 1.67178Z" fill="#99CA3C"></path><path id="Vector_2" d="M763.041 0.901001H962.338V512.38H763.041V0.901001Z" fill="#99CA3C"></path><path id="Vector_3" d="M1544.43 0.901001H1744.1V512.068H1519.7L1245.1 199.818V512.068H1045.8V0.901001H1320.03L1544.43 271.703V0.901001Z" fill="#99CA3C"></path><path id="Vector_4" d="M1744.55 571.766H0.551758V701.099H1744.55V571.766Z" fill="white"></path><path id="Vector_5" d="M133.859 607.229H181.646V619.703H133.859V607.229ZM133.859 619.703H147.703V632.651H133.859V619.703ZM133.859 632.651H177.589V645.13H133.859V632.651ZM133.859 645.13H147.703V658.521H133.859V645.13ZM133.859 658.521H182.115V671H133.859V658.521Z" fill="#174C3A"></path><path id="Vector_6" d="M40.1719 647.187L67.9792 635.75L40.1719 624.312V612.552L79.9896 629.979V641.338L40.1719 658.786V647.187Z" fill="#99CA3C"></path><path id="Vector_7" d="M1665.11 641.359V630L1704.93 612.573V624.172L1677.12 635.609L1704.93 647.047V658.807L1665.11 641.359Z" fill="#99CA3C"></path><path id="Vector_8" d="M217.374 661.766L225.614 651.839C231.322 656.568 237.291 659.583 244.53 659.583C250.239 659.583 253.666 657.302 253.666 653.568V653.385C253.666 649.839 251.483 648.005 240.9 645.271C228.14 641.99 219.905 638.443 219.905 625.781V625.599C219.905 614.021 229.14 606.375 242.082 606.375C251.322 606.375 259.187 609.286 265.629 614.49L258.395 625.047C252.785 621.135 247.265 618.771 241.921 618.771C236.577 618.771 233.765 621.234 233.765 624.333V624.516C233.765 628.698 236.478 630.083 247.447 632.896C260.312 636.26 267.546 640.911 267.546 652.042V652.224C267.546 664.885 257.947 672 244.285 672C234.681 672 224.999 668.635 217.395 661.786" fill="#174C3A"></path><path id="Vector_9" d="M300.922 607.271H353.438V620.219H300.922V607.271ZM320.208 620.219H334.151V671.042H320.208V620.219Z" fill="#174C3A"></path><path id="Vector_10" d="M492.375 681.99L499.614 671.245C485.036 667.964 474.906 655.016 474.906 639.359V639.177C474.906 621.052 488.484 606.188 507.953 606.188C519.895 606.188 527.052 610.208 532.947 616.036L524.078 626.333C519.182 621.87 514.208 619.135 507.869 619.135C497.187 619.135 489.479 628.068 489.479 638.995V639.177C489.479 650.104 497.005 659.219 507.869 659.219C515.109 659.219 519.552 656.302 524.526 651.755L533.395 660.766C527.338 667.328 520.531 671.51 509.765 672.063L503.875 686.823L492.375 681.99Z" fill="#174C3A"></path><path id="Vector_11" d="M819.26 607.271H834.65L851.229 652.182L867.801 607.271H882.827L857.202 671.51H844.885L819.26 607.271Z" fill="#174C3A"></path><path id="Vector_12" d="M935.219 606.432H919.219V671.766H935.219V606.432Z" fill="#174C3A"></path><path id="Vector_13" d="M977.322 607.271H991.265V658.297H977.322V607.271ZM977.322 658.297H1022.86V671.063H977.322V658.297Z" fill="#174C3A"></path><path id="Vector_14" d="M1209.14 661.766L1217.37 651.839C1223.08 656.568 1229.06 659.583 1236.3 659.583C1242 659.583 1245.45 657.302 1245.45 653.568V653.385C1245.45 649.839 1243.27 648.005 1232.69 645.271C1219.93 641.99 1211.69 638.443 1211.69 625.781V625.599C1211.69 614.021 1220.92 606.375 1233.87 606.375C1243.1 606.375 1250.97 609.286 1257.42 614.49L1250.18 625.047C1244.57 621.135 1239.05 618.771 1233.71 618.771C1228.36 618.771 1225.55 621.234 1225.55 624.333V624.516C1225.55 628.698 1228.27 630.083 1239.23 632.896C1252.09 636.26 1259.33 640.911 1259.33 652.042V652.224C1259.33 664.885 1249.73 672 1236.07 672C1226.47 672 1216.79 668.635 1209.18 661.786" fill="#174C3A"></path><path id="Vector_15" d="M1402.67 607.271H1415.54L1445.24 646.536V607.271H1459.01V671.042H1447.14L1416.44 630.51V671.042H1402.67V607.271Z" fill="#174C3A"></path><path id="Vector_16" d="M1516.55 606.432H1501.88V671.766H1516.55V606.432Z" fill="#174C3A"></path><path id="Vector_17" d="M419.51 644.354L411.094 623.661L402.672 644.354H419.51ZM404.854 606.823H417.719L444.875 671.062H430.297L424.505 656.75H397.698L391.911 671.062H377.698L404.854 606.823Z" fill="#174C3A"></path><path id="Vector_18" d="M608.072 644.354L599.65 623.661L591.234 644.354H608.072ZM599.202 599.26C597.02 598.443 595.307 597.792 593.864 597.792C591.046 597.792 589.864 599.338 588.604 602.255L581.265 599.974C583.343 592.307 586.239 587.391 592.577 587.391C595.656 587.391 598.734 588.495 601.364 589.495C603.546 590.307 605.26 590.943 606.708 590.943C609.52 590.943 610.682 589.391 611.963 586.474L619.307 588.76C617.223 596.406 614.333 601.338 607.989 601.338C604.911 601.338 601.833 600.234 599.202 599.24M593.411 606.802H606.275L633.432 671.042H618.854L613.067 656.729H586.26L580.468 671.042H566.26L593.411 606.802Z" fill="#174C3A"></path><path id="Vector_19" d="M716.244 639.339V639.156C716.244 628.229 708.275 619.115 697.062 619.115C685.848 619.115 678.041 628.047 678.041 638.974V639.156C678.041 650.083 686.01 659.198 697.244 659.198C708.479 659.198 716.265 650.266 716.265 639.339M663.484 639.339V639.156C663.484 621.031 677.692 606.172 697.265 606.172C716.838 606.172 730.864 620.849 730.864 638.974V639.156C730.864 657.281 716.65 672.141 697.083 672.141C677.51 672.141 663.463 657.484 663.463 639.339" fill="#174C3A"></path><path id="Vector_20" d="M1096.89 644.354L1088.47 623.661L1080.05 644.354H1096.89ZM1082.23 606.823H1095.09L1122.25 671.062H1107.68L1101.89 656.75H1075.08L1069.29 671.062H1055.08L1082.23 606.823Z" fill="#174C3A"></path><path id="Vector_21" d="M1322.94 587.964H1335.99L1347.57 601.359H1336.52L1329.36 596.26L1322.21 601.359H1311.34L1322.94 587.964ZM1348.55 639.339V639.156C1348.55 628.229 1340.57 619.115 1329.36 619.115C1318.15 619.115 1310.34 628.047 1310.34 638.974V639.156C1310.34 650.083 1318.31 659.198 1329.53 659.198C1340.74 659.198 1348.55 650.266 1348.55 639.339ZM1295.77 639.339V639.156C1295.77 621.031 1309.97 606.172 1329.53 606.172C1349.08 606.172 1363.12 620.849 1363.12 638.974V639.156C1363.12 657.281 1348.91 672.141 1329.36 672.141C1309.81 672.141 1295.77 657.484 1295.77 639.339Z" fill="#174C3A"></path><path id="Vector_22" d="M1595.33 644.354L1586.91 623.661L1578.49 644.354H1595.33ZM1580.67 606.823H1593.54L1620.69 671.062H1606.11L1600.33 656.75H1573.49L1567.71 671.062H1553.49L1580.67 606.823Z" fill="#174C3A"></path></g></svg>